<svg xmlns="http://www.w3.org/2000/svg" xmlns:xlink="http://www.w3.org/1999/xlink" width="309.208" height="309.208" viewBox="0 0 309.208 309.208">
  <defs>
    <clipPath id="clip-path">
      <rect id="Rectangle_521" data-name="Rectangle 521" width="309.208" height="309.208" fill="none"/>
    </clipPath>
  </defs>
  <g id="Group_471" data-name="Group 471" transform="translate(0 0)">
    <g id="Group_470" data-name="Group 470" transform="translate(0 0)" clip-path="url(#clip-path)">
      <path id="Path_1384" data-name="Path 1384" d="M225.59,120.642A105.413,105.413,0,1,1,120.179,15.231,105.41,105.41,0,0,1,225.59,120.642" transform="translate(33.984 35.058)"/>
      <path id="Path_1385" data-name="Path 1385" d="M305.235,152.971A152.263,152.263,0,1,1,152.974.71,152.262,152.262,0,0,1,305.235,152.971" transform="translate(1.632 1.633)" fill="#fff"/>
      <path id="Path_1386" data-name="Path 1386" d="M154.606,309.211C69.355,309.211,0,239.856,0,154.606S69.355,0,154.606,0,309.211,69.355,309.211,154.606,239.856,309.211,154.606,309.211m0-304.526c-82.665,0-149.92,67.255-149.92,149.92s67.255,149.92,149.92,149.92,149.92-67.255,149.92-149.92S237.271,4.685,154.606,4.685" transform="translate(0 -0.001)" fill="#fcb415"/>
      <path id="Path_1387" data-name="Path 1387" d="M21.469,50.25,18.458,43,15.443,50.25a4.259,4.259,0,0,1-3.592,2.612l-7.829.624,5.966,5.1a4.263,4.263,0,0,1,1.374,4.226L9.536,70.454l6.7-4.094a4.248,4.248,0,0,1,4.441,0l6.7,4.094-1.823-7.637a4.261,4.261,0,0,1,1.37-4.226l5.966-5.1-7.825-.624a4.263,4.263,0,0,1-3.6-2.612" transform="translate(9.258 98.976)"/>
      <path id="Path_1388" data-name="Path 1388" d="M44.01,34.143l-2.308,5L20.193,42.794l16.331,7.548-2.311,5L10.2,44.24l2.308-5,21.644-3.589L17.681,28.041l2.308-5Z" transform="translate(23.468 53.039)"/>
      <path id="Path_1389" data-name="Path 1389" d="M22.607,26.6l5.111,4.573L34.23,23.9l3.015,2.7-6.508,7.277,5.306,4.748,7.29-8.149L46.49,33.3,35.527,45.553,15.809,27.907l10.962-12.25,3.127,2.8Z" transform="translate(36.389 36.04)"/>
      <path id="Path_1390" data-name="Path 1390" d="M51.381,34.774,41.241,30.61l.337,10.572-5.263,3.441-.149-16.067L21.638,22.6,27.1,19.037l9.939,4.068L36.74,12.734,42,9.293l.056,15.859L56.839,31.2Z" transform="translate(49.807 21.391)"/>
      <path id="Path_1391" data-name="Path 1391" d="M50.3,5.953l1.347,3.975-7.211,2.443,7.142,21.086-5.217,1.767L39.217,14.138l-7.175,2.43L30.7,12.593Z" transform="translate(70.662 13.701)"/>
      <path id="Path_1392" data-name="Path 1392" d="M60.777,19.315a6.28,6.28,0,0,1,1.869,4.028A6.488,6.488,0,0,1,60.8,28.8q-2.14,2.13-6.538,2.519l-11.784,1.05L40.127,6.009,51.68,4.979a10.206,10.206,0,0,1,6.554,1.185,5.925,5.925,0,0,1,2.675,4.728,6,6,0,0,1-.984,4.15A6.291,6.291,0,0,1,56.59,17.41a6.744,6.744,0,0,1,4.187,1.905M46.6,16.568l4.94-.439a4.866,4.866,0,0,0,3.054-1.156,3.089,3.089,0,0,0,.845-2.615,3.176,3.176,0,0,0-1.278-2.447A4.933,4.933,0,0,0,50.848,9.3l-4.86.433Zm9.456,9.338a3.2,3.2,0,0,0,.928-2.774,3.278,3.278,0,0,0-1.426-2.6,5.3,5.3,0,0,0-3.447-.65l-5.174.459.644,7.244,5.214-.466a5.333,5.333,0,0,0,3.262-1.212" transform="translate(92.366 11.295)"/>
      <path id="Path_1393" data-name="Path 1393" d="M63.258,33.193l-4.8-11.167-2.394-.37L54.5,31.842l-5.441-.835L53.085,4.853l10.381,1.6q4.75.733,6.894,3.338a7.551,7.551,0,0,1,1.588,6.237,7.435,7.435,0,0,1-2.483,4.7,8.638,8.638,0,0,1-5.369,1.9l5.181,11.494ZM56.622,18.064l4.477.69q4.67.718,5.28-3.246a3.862,3.862,0,0,0-.683-3.12,5.135,5.135,0,0,0-3.371-1.6L57.85,10.1Z" transform="translate(112.922 11.17)"/>
      <rect id="Rectangle_516" data-name="Rectangle 516" width="26.461" height="5.504" transform="translate(188.154 47.563) rotate(-70.554)"/>
      <path id="Path_1394" data-name="Path 1394" d="M83.26,37.818a11.719,11.719,0,0,1-6.686,1.36A16.816,16.816,0,0,1,69.1,36.533l-8.344-5.141L74.639,8.864,82.983,14a17.211,17.211,0,0,1,5.742,5.455A11.555,11.555,0,0,1,90.544,26a13.666,13.666,0,0,1-2.186,6.822,13.665,13.665,0,0,1-5.1,5m-5.035-3.85a8.135,8.135,0,0,0,5.382-4.081,8.2,8.2,0,0,0,1.245-6.673q-.9-3.195-4.689-5.527l-3.256-2.008L67.92,30.26l3.259,2.008a9.8,9.8,0,0,0,7.046,1.7" transform="translate(139.849 20.402)"/>
      <path id="Path_1395" data-name="Path 1395" d="M97.515,30.065a10.584,10.584,0,0,1-2.192,7.39l-3.711-4.428a6.384,6.384,0,0,0,.528-3.83,7.973,7.973,0,0,0-1.879-3.9,8.328,8.328,0,0,0-3.513-2.559,7.21,7.21,0,0,0-4.127-.261,9.768,9.768,0,0,0-4.157,2.163,8.75,8.75,0,0,0-3.477,5.943,8.57,8.57,0,0,0,2.295,6.356,7.968,7.968,0,0,0,4.566,2.823,7.782,7.782,0,0,0,5.359-.9l-6-7.152,2.9-2.43,8.955,10.681-3.906,3.275a12.182,12.182,0,0,1-10.748.218,14.265,14.265,0,0,1-5.068-3.979,14.633,14.633,0,0,1-3.3-6.587,11.976,11.976,0,0,1,.565-6.736,14.149,14.149,0,0,1,4.266-5.795,14.139,14.139,0,0,1,6.448-3.186,12.129,12.129,0,0,1,6.732.594,14.429,14.429,0,0,1,5.914,4.368,13.992,13.992,0,0,1,3.543,7.934" transform="translate(160.679 38.992)"/>
      <path id="Path_1396" data-name="Path 1396" d="M96.924,32.14l-6.349,2.6,3.7,9.034L90.525,45.3,86.83,36.271l-6.59,2.7L84.38,49.085l-3.923,1.6L74.233,35.475l24.49-10.021,6.227,15.215-3.886,1.591Z" transform="translate(170.874 58.59)"/>
      <rect id="Rectangle_517" data-name="Rectangle 517" width="27.785" height="4.487" transform="matrix(0.846, -0.533, 0.533, 0.846, 37.986, 229.209)"/>
      <path id="Path_1397" data-name="Path 1397" d="M29.146,102.725l-3.13-3.216,6.511-20.382L19,92.308l-3.13-3.216,19.9-19.385L38.9,72.92,32.273,93.414l13.643-13.29,3.13,3.213Z" transform="translate(36.521 160.453)"/>
      <path id="Path_1398" data-name="Path 1398" d="M37.831,103.223a6.9,6.9,0,0,1-3.649,1.2,7.456,7.456,0,0,1-4.091-1.136,8.9,8.9,0,0,1-3.173-3.018,7.662,7.662,0,0,1-1.139-4.015,9.624,9.624,0,0,1,1.113-4.457l4.121,2.41a4.99,4.99,0,0,0-.472,2.982,3.085,3.085,0,0,0,1.591,2.229,2.6,2.6,0,0,0,2.321.287A3.677,3.677,0,0,0,36.3,98.022a3.6,3.6,0,0,0,.561-2.159,4.556,4.556,0,0,0-.634-1.941,26.345,26.345,0,0,0-1.6-2.3A22.732,22.732,0,0,1,32.518,88.4a7.018,7.018,0,0,1-.723-3.272,8.339,8.339,0,0,1,1.314-4.107A7.575,7.575,0,0,1,37.758,77.2a7.488,7.488,0,0,1,5.811,1,7.655,7.655,0,0,1,3.83,4.7,8.714,8.714,0,0,1-.783,6.105l-4.177-2.44a4.571,4.571,0,0,0,.36-2.638,2.811,2.811,0,0,0-1.463-1.971,2.627,2.627,0,0,0-2.14-.317,3.277,3.277,0,0,0-1.839,1.638,3.36,3.36,0,0,0-.515,2.047,4.648,4.648,0,0,0,.627,1.892,21.785,21.785,0,0,0,1.552,2.229,29.27,29.27,0,0,1,2.143,3.305,6.786,6.786,0,0,1,.743,3.305,8.616,8.616,0,0,1-1.36,4.216,8.956,8.956,0,0,1-2.717,2.949" transform="translate(59.339 177.198)"/>
      <path id="Path_1399" data-name="Path 1399" d="M53.683,84.446l-1.126,4.263-6-1.588-5.973,22.6-4.339-1.146,5.973-22.6L36.249,84.4l1.126-4.259Z" transform="translate(83.433 184.462)"/>
      <rect id="Rectangle_518" data-name="Rectangle 518" width="27.784" height="4.489" transform="translate(149.118 297.769) rotate(-88.543)"/>
      <path id="Path_1400" data-name="Path 1400" d="M67.127,80.62l.908,4.312-6.072,1.281,4.817,22.872-4.391.928L57.572,87.138l-6.042,1.271L50.621,84.1Z" transform="translate(116.523 185.573)"/>
      <path id="Path_1401" data-name="Path 1401" d="M63,83.175l7.726,14.343a8.463,8.463,0,0,0,3.348,3.764,4.238,4.238,0,0,0,5.884-3.17,8.465,8.465,0,0,0-1.3-4.867L70.932,78.9l3.923-2.113,7.726,14.343a16.224,16.224,0,0,1,2.064,6.287,8.176,8.176,0,0,1-4.441,8.36,7.885,7.885,0,0,1-7.106.433q-3.551-1.486-6.293-6.581L59.078,85.288Z" transform="translate(135.988 176.755)"/>
      <path id="Path_1402" data-name="Path 1402" d="M79.114,71.048l3.031,3.2-4.507,4.269L93.714,95.488l-3.259,3.087L74.382,81.6,69.9,85.847l-3.031-3.2Z" transform="translate(153.918 163.54)"/>
      <path id="Path_1403" data-name="Path 1403" d="M79.184,74.5l5.99,4,4.418-6.617,3.536,2.361-4.421,6.617,6.217,4.154L99.874,77.6l3.7,2.473-7.442,11.14L73.026,75.78l7.442-11.14,3.665,2.45Z" transform="translate(168.095 148.789)"/>
      <path id="Path_1404" data-name="Path 1404" d="M221.749,118.678a103.07,103.07,0,1,1-103.07-103.07,103.071,103.071,0,0,1,103.07,103.07" transform="translate(35.927 35.926)" fill="#fcb415"/>
      <path id="Path_1405" data-name="Path 1405" d="M47.758,113.113h94.3c0-52.783-42.551-95.575-94.3-95.575Z" transform="translate(109.932 40.368)" fill="#fff"/>
      <path id="Path_1406" data-name="Path 1406" d="M112.781,47.149H17.48c0,52.783,43.551,95.575,95.3,95.575Z" transform="translate(40.236 108.528)" fill="#fff"/>
      <rect id="Rectangle_519" data-name="Rectangle 519" width="40.715" height="28.422" transform="translate(88.367 183.976)" fill="#f1b31b"/>
      <rect id="Rectangle_520" data-name="Rectangle 520" width="40.715" height="4.216" transform="translate(88.367 178.709)" fill="#f1b31b"/>
      <path id="Path_1407" data-name="Path 1407" d="M41.017,64.048l-5.273-5.811a.832.832,0,0,0-1.208-.036.916.916,0,0,0-.036,1.258l4.722,5.2L34.5,69.86a.912.912,0,0,0,.036,1.255.823.823,0,0,0,.584.244.841.841,0,0,0,.624-.277l5.273-5.811a.918.918,0,0,0,0-1.222" transform="translate(78.877 133.411)" fill="#fff"/>
      <path id="Path_1408" data-name="Path 1408" d="M36.226,69.859l-4.718-5.2,4.718-5.2A.912.912,0,0,0,36.19,58.2a.827.827,0,0,0-1.208.036l-5.273,5.808a.918.918,0,0,0,0,1.222l5.273,5.811a.835.835,0,0,0,1.208.036.913.913,0,0,0,.036-1.258" transform="translate(67.848 133.411)" fill="#fff"/>
      <path id="Path_1409" data-name="Path 1409" d="M35.783,57.143a.862.862,0,0,0-.974.746L32.3,74.963a.885.885,0,0,0,.716,1.014.843.843,0,0,0,.129.01.864.864,0,0,0,.845-.756L36.5,58.157a.885.885,0,0,0-.716-1.014" transform="translate(74.324 131.51)" fill="#fff"/>
      <path id="Path_1410" data-name="Path 1410" d="M68.885,53.806H26.995a.559.559,0,0,0-.588.525V89.07a.559.559,0,0,0,.588.525H68.885a.556.556,0,0,0,.584-.525V54.331a.556.556,0,0,0-.584-.525M30.993,88.545H27.579V60.122h3.414Zm32.718,0H32.169V60.122H63.711Zm4.586,0H64.883V60.122H68.3Zm0-29.472H27.582V54.856H68.3Z" transform="translate(60.785 123.852)" fill="#fcb415"/>
      <path id="Path_1411" data-name="Path 1411" d="M29.137,57.23a1.442,1.442,0,1,0-1.6-1.433,1.525,1.525,0,0,0,1.6,1.433m0-1.816a.386.386,0,1,1-.429.383.41.41,0,0,1,.429-.383" transform="translate(63.384 125.136)" fill="#fff"/>
      <path id="Path_1412" data-name="Path 1412" d="M30.334,57.23a1.442,1.442,0,1,0-1.6-1.433,1.524,1.524,0,0,0,1.6,1.433m0-1.816a.386.386,0,1,1-.433.383.409.409,0,0,1,.433-.383" transform="translate(66.139 125.136)" fill="#fff"/>
      <path id="Path_1413" data-name="Path 1413" d="M31.53,57.23a1.442,1.442,0,1,0-1.6-1.433,1.525,1.525,0,0,0,1.6,1.433m0-1.816a.386.386,0,1,1-.429.383.41.41,0,0,1,.429-.383" transform="translate(68.892 125.136)" fill="#fff"/>
      <path id="Path_1414" data-name="Path 1414" d="M36.465,55.689h6.194a.528.528,0,1,0,0-1.05H36.465a.528.528,0,1,0,0,1.05" transform="translate(82.583 125.769)" fill="#fff"/>
      <path id="Path_1415" data-name="Path 1415" d="M67.065,56.452H27.176a.413.413,0,0,1-.413-.413v-.225a.413.413,0,0,1,.413-.413h39.89a.413.413,0,0,1,.413.413v.225a.413.413,0,0,1-.413.413" transform="translate(61.604 127.526)" fill="#fff"/>
      <path id="Path_1416" data-name="Path 1416" d="M111.536,57.851a2.3,2.3,0,0,0-1.3-2.054V41.639a.436.436,0,0,0-.01-.816L81.01,30.518a1.735,1.735,0,0,0-1.156,0L50.643,40.823a.436.436,0,0,0-.01.816L79.8,52.994a1.767,1.767,0,0,0,1.261,0l27.158-10.576V55.8a2.286,2.286,0,0,0-1.3,2.05,2.315,2.315,0,0,0,1.4,2.123,19.036,19.036,0,0,0-1.4,5.93,2.306,2.306,0,1,0,4.613,0,19.13,19.13,0,0,0-1.4-5.93,2.309,2.309,0,0,0,1.407-2.12" transform="translate(115.912 70.019)" fill="#fcb415"/>
      <path id="Path_1417" data-name="Path 1417" d="M109.554,69a2.777,2.777,0,0,1-2.774-2.774,20.174,20.174,0,0,1,1.261-5.729,2.776,2.776,0,0,1-1.261-2.328,2.735,2.735,0,0,1,1.3-2.325V43.429L81.561,53.757a2.223,2.223,0,0,1-1.6,0L50.788,42.4a.9.9,0,0,1,.03-1.694L80.025,30.4a2.2,2.2,0,0,1,1.469,0l29.215,10.3a.906.906,0,0,1,.32,1.509V55.85a2.748,2.748,0,0,1,.036,4.649,20.243,20.243,0,0,1,1.261,5.729A2.777,2.777,0,0,1,109.554,69m-.538-26.943V56.412l-.261.132a1.814,1.814,0,0,0-1.04,1.628,1.839,1.839,0,0,0,1.119,1.694l.462.195-.228.446a18.647,18.647,0,0,0-1.354,5.722,1.837,1.837,0,0,0,3.675,0,18.689,18.689,0,0,0-1.354-5.722l-.225-.449.462-.195a1.813,1.813,0,0,0,.079-3.318l-.261-.129V41.643l.3-.116L81.184,31.285a1.279,1.279,0,0,0-.845,0L51.128,41.593,80.3,52.882a1.276,1.276,0,0,0,.925,0Z" transform="translate(115.583 69.691)" fill="#f1b31b"/>
      <path id="Path_1418" data-name="Path 1418" d="M53.206,35.549c0,3.266,0,7.109,0,7.72,0,6.082,9.153,11.031,20.663,11.342,11.507-.31,20.66-5.253,20.66-11.342,0-.608,0-4.451.007-7.72L74.5,43.351a1.767,1.767,0,0,1-1.261,0Z" transform="translate(122.472 81.827)" fill="#fcb415"/>
      <path id="Path_1419" data-name="Path 1419" d="M54.9,50.434h5.27a2.954,2.954,0,1,0,0-2.249H54.9V43.7a2.533,2.533,0,0,0-.109-.73l6.987-6.894a2.942,2.942,0,1,0-1.6-1.582l-6.931,6.838a2.514,2.514,0,0,0-.868-.152H47.82V36.051a2.973,2.973,0,1,0-2.249,0v5.131h-4.56a2.528,2.528,0,0,0-.868.152L33.212,34.5a2.975,2.975,0,1,0-2.741,1.809,2.988,2.988,0,0,0,1.142-.228L38.6,42.971a2.534,2.534,0,0,0-.109.73v4.484h-5.27a2.954,2.954,0,1,0,0,2.249h5.27v4.484a2.458,2.458,0,0,0,.132.8l-7.007,6.917a2.927,2.927,0,0,0-1.142-.228,2.952,2.952,0,1,0,2.972,2.952,2.918,2.918,0,0,0-.231-1.142l7-6.907a2.458,2.458,0,0,0,.8.132h4.56v5.22a2.973,2.973,0,1,0,2.249,0V57.44h4.56a2.493,2.493,0,0,0,.8-.132l7,6.907a2.918,2.918,0,0,0-.231,1.142,2.97,2.97,0,1,0,1.829-2.724L54.77,55.717a2.458,2.458,0,0,0,.132-.8Zm8.017-1.826a.7.7,0,1,1-.723.7.713.713,0,0,1,.723-.7M46.7,32.617a.7.7,0,1,1-.723.7.714.714,0,0,1,.723-.7M30.472,50.011a.7.7,0,1,1,.723-.7.714.714,0,0,1-.723.7M46.7,66.094a.7.7,0,1,1,.723-.7.715.715,0,0,1-.723.7M62.919,32.65a.7.7,0,1,1-.723.7.712.712,0,0,1,.723-.7m-33.17.7a.723.723,0,1,1,.723.7.714.714,0,0,1-.723-.7m.723,32.711a.7.7,0,1,1,.723-.7.717.717,0,0,1-.723.7M52.653,54.918a.273.273,0,0,1-.274.271H41.011a.272.272,0,0,1-.271-.271V43.7a.272.272,0,0,1,.271-.271H52.379a.273.273,0,0,1,.274.271Zm10.989,10.44a.723.723,0,1,1-.723-.7.715.715,0,0,1,.723.7" transform="translate(63.301 69.894)" fill="#fff"/>
      <path id="Path_1420" data-name="Path 1420" d="M32.684,38.13h1.823L33.6,35.558Z" transform="translate(75.234 81.848)" fill="#fff"/>
      <path id="Path_1421" data-name="Path 1421" d="M40.473,34.685H32.657a.754.754,0,0,0-.756.756v7.938a.753.753,0,0,0,.756.753h7.815a.752.752,0,0,0,.753-.753V35.441a.753.753,0,0,0-.753-.756m-3.493,7.333-.419-1.192H34.239l-.423,1.192h-.948L34.892,36.6h1.02l2.017,5.415Zm3.282,0h-.888v-5.5h.888Z" transform="translate(73.431 79.838)" fill="#fff"/>
      <path id="Path_1422" data-name="Path 1422" d="M89.954,72.959l-1.341-.442V70.251a16.192,16.192,0,0,0-.373-3.46,2,2,0,0,0,.621-2.433,17.886,17.886,0,0,0-32.55,0,2,2,0,0,0,.624,2.433,15.985,15.985,0,0,0-.376,3.46v2.265l-1.337.442a1.808,1.808,0,0,0-1.235,1.717v6.386a1.8,1.8,0,0,0,1.235,1.714l3.15,1.053a1.894,1.894,0,0,0,1.846,1.486,1.378,1.378,0,0,0,1.377-1.377V71.8a1.378,1.378,0,0,0-1.377-1.377,1.891,1.891,0,0,0-1.846,1.483l-.723.244v-1.9a14.935,14.935,0,0,1,.317-3.071c.053,0,.109.01.162.01a2.014,2.014,0,0,0,1.819-1.169,13.9,13.9,0,0,1,5.035-5.871,7.7,7.7,0,0,0,1.129-.723,5.75,5.75,0,0,0,.991-.416A13.906,13.906,0,0,1,80.19,60.151a13.882,13.882,0,0,1,5.039,5.871,2,2,0,0,0,1.819,1.169c.053,0,.106-.007.162-.01a15.167,15.167,0,0,1,.314,3.071v1.9l-.72-.244a1.894,1.894,0,0,0-1.849-1.483A1.378,1.378,0,0,0,83.578,71.8V83.937a1.378,1.378,0,0,0,1.377,1.377A1.9,1.9,0,0,0,86.8,83.828l.72-.241v1.691A3.633,3.633,0,0,1,83.9,88.907H77.083a1.381,1.381,0,0,0-1.347-1.086h-6.33a1.377,1.377,0,0,0-1.377,1.374,1.894,1.894,0,0,0,1.892,1.892h5.3A1.9,1.9,0,0,0,76.935,90H83.9a4.721,4.721,0,0,0,4.718-4.718v-2.05l1.341-.452a1.8,1.8,0,0,0,1.235-1.714V74.676a1.808,1.808,0,0,0-1.235-1.717M58.874,74.97a.548.548,0,0,0,.545-.548v-2.11a.8.8,0,0,1,.8-.8.29.29,0,0,1,.287.291V83.937a.285.285,0,0,1-.287.287.8.8,0,0,1-.8-.8V76.967a.547.547,0,0,0-.545-.545.534.534,0,0,0-.528.469l-.007-2.41a.541.541,0,0,0,.535.489M86.3,76.287a.545.545,0,0,0-.545.545v6.59a.8.8,0,0,1-.8.8.283.283,0,0,1-.284-.287V71.8a.288.288,0,0,1,.284-.291.805.805,0,0,1,.8.8V74.3a.54.54,0,0,0,1.017.254v2.024a.544.544,0,0,0-.472-.291" transform="translate(124.27 124.031)" fill="#fff"/>
      <path id="Path_1423" data-name="Path 1423" d="M97.652,50.254,94.641,43l-3.015,7.251a4.259,4.259,0,0,1-3.592,2.612l-7.829.624,5.966,5.1a4.263,4.263,0,0,1,1.374,4.226l-1.826,7.637,6.7-4.094a4.248,4.248,0,0,1,4.441,0l6.7,4.094-1.823-7.637a4.261,4.261,0,0,1,1.37-4.226l5.966-5.1-7.825-.624a4.263,4.263,0,0,1-3.6-2.612" transform="translate(184.62 98.985)"/>
    </g>
  </g>
</svg>
